<svg xmlns="http://www.w3.org/2000/svg" viewBox="0 0 100 100">
  <rect x="43.93" y="68.27" width="36.07" height="7.99" rx="2" ry="2"/>
  <path d="M33.82 76.26h-4a2 2 0 0 1-2-2v-4a2 2 0 0 1 2-2h4a2 2 0 0 1 2 2v4a1.9 1.9 0 0 1-2 2zm0-17.85h-4a2 2 0 0 1-2-2v-4a2 2 0 0 1 2-2h4a2 2 0 0 1 2 2v4a1.9 1.9 0 0 1-2 2z"/>
  <rect x="43.93" y="50.42" width="36.07" height="7.99" rx="2" ry="2"/>
  <rect x="49.92" y="32.57" width="30.08" height="7.99" rx="2" ry="2"/>
  <path d="M47.55 26.33l-2.12-2.12a1.44 1.44 0 0 0-2.12 0L30.08 37.32l-5.37-5.24a1.44 1.44 0 0 0-2.12 0L20.47 34.2a1.44 1.44 0 0 0 0 2.12l7.36 7.36a3 3 0 0 0 4.24 0L47.55 28.46a1.69 1.69 0 0 0 0-2.13z"/>
</svg>