<?xml version="1.0" encoding="UTF-8"?>
<!DOCTYPE svg PUBLIC "-//W3C//DTD SVG 1.1//EN" "http://www.w3.org/Graphics/SVG/1.1/DTD/svg11.dtd">
<svg xmlns="http://www.w3.org/2000/svg" version="1.1" width="282px" height="145px" style="shape-rendering:geometricPrecision; text-rendering:geometricPrecision; image-rendering:optimizeQuality; fill-rule:evenodd; clip-rule:evenodd" xmlns:xlink="http://www.w3.org/1999/xlink">
<g><path style="opacity:0.952" fill="#fefffe" d="M -0.5,-0.5 C 75.5,-0.5 151.5,-0.5 227.5,-0.5C 257.391,6.72372 275.391,25.3904 281.5,55.5C 281.5,66.5 281.5,77.5 281.5,88.5C 275.391,118.61 257.391,137.276 227.5,144.5C 165.833,144.5 104.167,144.5 42.5,144.5C 24.4585,136.734 18.6252,123.401 25,104.5C 27.0322,100.592 29.8655,97.425 33.5,95C 22.8385,86.0099 19.6719,74.8432 24,61.5C 25.8865,57.5598 28.3865,54.0598 31.5,51C 14.0385,43.1972 3.37183,30.0305 -0.5,11.5C -0.5,7.5 -0.5,3.5 -0.5,-0.5 Z M 20.5,9.5 C 50.3305,8.33612 80.3305,8.16945 110.5,9C 104.07,13.4286 99.0699,19.0952 95.5,26C 77.4613,26.9158 59.4613,26.5825 41.5,25C 32.5985,22.246 25.5985,17.0793 20.5,9.5 Z M 137.5,8.5 C 151.833,8.5 166.167,8.5 180.5,8.5C 180.667,24.8367 180.5,41.1701 180,57.5C 172.704,80.7861 156.87,91.2861 132.5,89C 105.769,80.0414 95.936,61.8748 103,34.5C 109.798,19.5282 121.298,10.8615 137.5,8.5 Z M 190.5,8.5 C 200.172,8.33353 209.839,8.5002 219.5,9C 242.508,11.4265 258.675,23.2598 268,44.5C 270.902,53.43 272.069,62.5966 271.5,72C 273.122,100.781 260.788,120.781 234.5,132C 230.584,133.451 226.584,134.118 222.5,134C 233.428,117.354 234.261,100.187 225,82.5C 217.133,70.3038 205.966,63.4704 191.5,62C 190.572,61.6121 189.905,60.9454 189.5,60C 190.479,42.8682 190.813,25.7016 190.5,8.5 Z M 44.5,54.5 C 59.8333,54.5 75.1667,54.5 90.5,54.5C 91.0085,60.3713 92.6752,65.8713 95.5,71C 81.5,71.6667 67.5,71.6667 53.5,71C 46.222,68.7388 42.3887,63.9054 42,56.5C 42.9947,55.9341 43.828,55.2674 44.5,54.5 Z M 46.5,99.5 C 76.1667,99.5 105.833,99.5 135.5,99.5C 135.193,105.093 135.527,110.593 136.5,116C 108.5,116.667 80.5,116.667 52.5,116C 45.6274,113.34 42.294,108.507 42.5,101.5C 44.0255,101.006 45.3588,100.339 46.5,99.5 Z M 154.5,99.5 C 166.171,99.3335 177.838,99.5001 189.5,100C 205.152,104.125 212.318,114.291 211,130.5C 207.498,123 201.664,118.5 193.5,117C 185.167,116.667 176.833,116.333 168.5,116C 160.775,113.108 156.109,107.608 154.5,99.5 Z"/></g>
<g><path style="opacity:0.958" fill="#fefffe" d="M 136.5,21.5 C 155.343,21.178 166.01,30.3446 168.5,49C 165.558,69.2725 153.891,78.2725 133.5,76C 113.904,67.8912 108.404,54.0579 117,34.5C 121.815,27.5177 128.315,23.1843 136.5,21.5 Z"/></g>
<g><path style="opacity:0.923" fill="#fefffe" d="M 216.5,21.5 C 228.111,21.1253 234.778,26.6253 236.5,38C 235.667,48.1667 230.167,53.6667 220,54.5C 209.826,53.6598 204.326,48.1598 203.5,38C 204.011,29.3381 208.344,23.8381 216.5,21.5 Z"/></g>
</svg>
